<svg width="75" height="73" viewBox="0 0 75 73" fill="none" xmlns="http://www.w3.org/2000/svg">
<path d="M25.9248 42.542L8.96559 23.8593L40.5591 5.61874L48.2593 29.6472C50.1543 35.5608 47.6694 41.9955 42.2915 45.1004C36.9136 48.2053 30.0986 47.14 25.9248 42.542Z" stroke="#DE002B" stroke-width="1.5354"/>
<path d="M55.7336 49.3141L59.1905 51.8912L39.7225 63.1311L39.219 58.8488C38.7349 54.7308 40.7476 50.7197 44.3385 48.6465C47.9293 46.5734 52.4094 46.8358 55.7336 49.3141Z" stroke="#DE002B" stroke-width="2.0472"/>
<path d="M42.6132 36.9558L34.0499 41.8998L33.5484 41.0311L34.7274 40.3504C36.0511 39.5861 36.4384 38.7282 35.889 37.7768L27.4341 23.1324C27.0878 22.5325 26.5991 22.2355 25.9682 22.2413C25.3252 22.2264 24.3212 22.613 22.956 23.4012L22.4545 22.5324C24.7297 21.2188 26.1558 19.4853 26.7328 17.332L27.4058 16.778L38.6193 36.2004C38.9537 36.7796 39.2988 37.0906 39.6544 37.1334C40.0101 37.1763 40.581 36.9708 41.367 36.517L42.1116 36.0871L42.6132 36.9558Z" fill="#DE002B"/>
<path d="M15.0576 30.6866L4.86328 36.5723L13.3557 40.5338L25.8372 42.1922" stroke="#DE002B" stroke-width="1.5354"/>
<path d="M43.4236 14.3077L53.6179 8.422L52.8025 17.7574L47.998 29.3959" stroke="#DE002B" stroke-width="1.5354"/>
<rect x="37.8336" y="49.1521" width="11.2596" height="1.5354" transform="rotate(-30 37.8336 49.1521)" stroke="#DE002B" stroke-width="1.5354"/>
</svg>
