<svg width="99" height="113" viewBox="0 0 99 113" fill="none" xmlns="http://www.w3.org/2000/svg">
<path d="M69.1854 43.76C71.3493 42.6379 74.9559 38.9512 69.1854 32.4593C67.0215 29.3336 67.9351 27.2658 72.5515 23.8035" stroke="#DE002B" stroke-width="1.44264" stroke-linecap="round"/>
<path d="M80.486 43.5195C79.7647 39.1916 77.6008 36.5468 84.3331 28.6122C85.2949 26.9292 84.6216 25.727 80.9669 22.8417C76.3986 19.2351 75.1964 15.8689 78.803 9.37708" stroke="#DE002B" stroke-width="1.44264" stroke-linecap="round"/>
<path d="M88.4207 43.5196C87.3788 41.8366 86.3529 37.6529 90.5847 34.3829C94.8164 31.113 91.306 28.1315 88.9016 25.9675C86.4972 23.5631 86.9781 22.1205 87.9398 18.5139" stroke="#DE002B" stroke-width="1.44264" stroke-linecap="round"/>
<path d="M29.9938 45.2027V37.7491C35.8445 39.0314 49.3732 40.8267 56.6826 37.7491C63.9919 34.6714 64.8575 37.9894 64.6171 40.3939C63.6553 44.4813 48.2672 46.6453 41.5349 46.1645C39.8956 46.0474 33.1996 45.2828 29.9938 45.2027Z" fill="#DE002B" stroke="#DE002B" stroke-width="0.480879"/>
<circle cx="22.7805" cy="25.7271" r="8.65583" fill="#DE002B" stroke="#DE002B" stroke-width="0.480879"/>
<mask id="path-6-inside-1_27_211" fill="white">
<path fill-rule="evenodd" clip-rule="evenodd" d="M14.8461 15.3416C14.61 15.3723 14.3693 15.3882 14.1248 15.3882C11.0706 15.3882 8.59468 12.9123 8.59468 9.85808C8.59468 6.80389 11.0706 4.32797 14.1248 4.32797C15.2868 4.32797 16.3651 4.68638 17.2552 5.29869C17.3766 2.35182 19.8039 0 22.7806 0C25.7573 0 28.1846 2.35182 28.306 5.29869C29.1961 4.68638 30.2744 4.32797 31.4364 4.32797C34.4906 4.32797 36.9665 6.80389 36.9665 9.85808C36.9665 12.9123 34.4906 15.3882 31.4364 15.3882C31.1919 15.3882 30.9512 15.3723 30.7151 15.3416V19.4756C26.616 14.7361 19.3025 14.626 15.0626 19.2399L14.8461 19.4756V15.3416Z"/>
</mask>
<path fill-rule="evenodd" clip-rule="evenodd" d="M14.8461 15.3416C14.61 15.3723 14.3693 15.3882 14.1248 15.3882C11.0706 15.3882 8.59468 12.9123 8.59468 9.85808C8.59468 6.80389 11.0706 4.32797 14.1248 4.32797C15.2868 4.32797 16.3651 4.68638 17.2552 5.29869C17.3766 2.35182 19.8039 0 22.7806 0C25.7573 0 28.1846 2.35182 28.306 5.29869C29.1961 4.68638 30.2744 4.32797 31.4364 4.32797C34.4906 4.32797 36.9665 6.80389 36.9665 9.85808C36.9665 12.9123 34.4906 15.3882 31.4364 15.3882C31.1919 15.3882 30.9512 15.3723 30.7151 15.3416V19.4756C26.616 14.7361 19.3025 14.626 15.0626 19.2399L14.8461 19.4756V15.3416Z" fill="#DE002B"/>
<path d="M14.8461 15.3416H15.327V14.794L14.784 14.8647L14.8461 15.3416ZM17.2552 5.29869L16.9827 5.69488L17.6999 6.18825L17.7357 5.31847L17.2552 5.29869ZM28.306 5.29869L27.8255 5.31847L27.8613 6.18825L28.5785 5.69488L28.306 5.29869ZM30.7151 15.3416L30.7772 14.8647L30.2342 14.794V15.3416H30.7151ZM30.7151 19.4756L30.3514 19.7902L31.196 20.7667V19.4756H30.7151ZM15.0626 19.2399L15.4167 19.5653L15.4167 19.5653L15.0626 19.2399ZM14.8461 19.4756H14.3652V20.7096L15.2002 19.801L14.8461 19.4756ZM14.784 14.8647C14.5684 14.8928 14.3484 14.9073 14.1248 14.9073V15.8691C14.3901 15.8691 14.6516 15.8519 14.9082 15.8184L14.784 14.8647ZM14.1248 14.9073C11.3362 14.9073 9.07556 12.6467 9.07556 9.85808H8.1138C8.1138 13.1779 10.805 15.8691 14.1248 15.8691V14.9073ZM9.07556 9.85808C9.07556 7.06947 11.3362 4.80885 14.1248 4.80885V3.84709C10.805 3.84709 8.1138 6.53831 8.1138 9.85808H9.07556ZM14.1248 4.80885C15.1864 4.80885 16.1702 5.13597 16.9827 5.69488L17.5278 4.9025C16.5601 4.2368 15.3872 3.84709 14.1248 3.84709V4.80885ZM17.7357 5.31847C17.8465 2.6282 20.0629 0.480879 22.7806 0.480879V-0.480879C19.545 -0.480879 16.9066 2.07544 16.7748 5.27891L17.7357 5.31847ZM22.7806 0.480879C25.4983 0.480879 27.7147 2.6282 27.8255 5.31847L28.7864 5.27891C28.6546 2.07544 26.0162 -0.480879 22.7806 -0.480879V0.480879ZM28.5785 5.69488C29.391 5.13597 30.3748 4.80885 31.4364 4.80885V3.84709C30.174 3.84709 29.0011 4.2368 28.0334 4.9025L28.5785 5.69488ZM31.4364 4.80885C34.225 4.80885 36.4856 7.06947 36.4856 9.85808H37.4474C37.4474 6.53831 34.7562 3.84709 31.4364 3.84709V4.80885ZM36.4856 9.85808C36.4856 12.6467 34.225 14.9073 31.4364 14.9073V15.8691C34.7562 15.8691 37.4474 13.1779 37.4474 9.85808H36.4856ZM31.4364 14.9073C31.2128 14.9073 30.9928 14.8928 30.7772 14.8647L30.653 15.8184C30.9096 15.8519 31.1711 15.8691 31.4364 15.8691V14.9073ZM30.2342 15.3416V19.4756H31.196V15.3416H30.2342ZM31.0788 19.161C26.7918 14.2041 19.1429 14.089 14.7086 18.9146L15.4167 19.5653C19.4622 15.1629 26.4403 15.268 30.3514 19.7902L31.0788 19.161ZM14.7086 18.9146L14.492 19.1502L15.2002 19.801L15.4167 19.5653L14.7086 18.9146ZM15.327 19.4756V15.3416H14.3652V19.4756H15.327Z" fill="#DE002B" mask="url(#path-6-inside-1_27_211)"/>
<rect x="17.9719" y="37.749" width="9.61759" height="7.21319" fill="#DE002B" stroke="#DE002B" stroke-width="0.480879"/>
<path d="M12.2013 68.0445H21.8188V107.957C21.8188 110.613 19.6659 112.766 17.01 112.766C14.3542 112.766 12.2013 110.613 12.2013 107.957V68.0445Z" fill="#DE002B" stroke="#DE002B" stroke-width="0.480879"/>
<path d="M23.7424 68.0445H33.36V107.957C33.36 110.613 31.207 112.766 28.5512 112.766C25.8954 112.766 23.7424 110.613 23.7424 107.957V68.0445Z" fill="#DE002B" stroke="#DE002B" stroke-width="0.480879"/>
<rect x="12.2013" y="68.0445" width="21.1587" height="3.36616" fill="#DE002B" stroke="#DE002B" stroke-width="0.480879"/>
<rect x="12.2013" y="45.4431" width="3.36616" height="22.1204" fill="#DE002B" stroke="#DE002B" stroke-width="0.480879"/>
<rect x="29.9937" y="45.4431" width="3.36616" height="22.1204" fill="#DE002B" stroke="#DE002B" stroke-width="0.480879"/>
<path d="M57.404 58.9077H98.7596C98.7596 70.3277 89.5019 79.5855 78.0818 79.5855C66.6618 79.5855 57.404 70.3277 57.404 58.9077Z" fill="#DE002B" stroke="#DE002B" stroke-width="0.480879"/>
<rect x="59.3276" y="54.5798" width="37.5086" height="1.44264" fill="#DE002B" stroke="#DE002B" stroke-width="0.480879"/>
<path d="M55.7209 50.4924H89.8634" stroke="#DE002B" stroke-width="0.480879"/>
<circle cx="87.6993" cy="50.2519" r="2.4044" fill="#DE002B" stroke="#DE002B" stroke-width="0.480879"/>
<circle cx="81.4478" cy="50.2519" r="2.4044" fill="#DE002B" stroke="#DE002B" stroke-width="0.480879"/>
<circle cx="75.1966" cy="50.2519" r="2.4044" fill="#DE002B" stroke="#DE002B" stroke-width="0.480879"/>
<circle cx="68.9451" cy="50.2519" r="2.4044" fill="#DE002B" stroke="#DE002B" stroke-width="0.480879"/>
<path d="M4.74765 55.0607C-5.447 44.289 7.55277 39.0314 15.327 37.749H15.5674V45.2027C15.327 45.1225 14.221 45.0584 11.7204 45.4431C9.21983 45.8278 7.79322 47.2063 7.39249 47.8475C8.27346 50.4904 15.005 54.7473 19.456 56.7374C20.177 57.0597 20.7495 57.6934 20.853 58.4764C21.9377 66.6828 10.4901 59.8843 4.74765 55.0607Z" fill="#DE002B" stroke="#DE002B" stroke-width="0.480879"/>
<rect x="76.6391" y="80.0664" width="2.88528" height="32.2189" fill="#DE002B" stroke="#DE002B" stroke-width="0.480879"/>
<path d="M60.346 112.285L67.9375 76.7003H70.8138L63.4596 112.285H60.346Z" fill="#DE002B" stroke="#DE002B" stroke-width="0.480879"/>
<path d="M95.3366 112.285L87.7452 76.7003H84.8688L92.223 112.285H95.3366Z" fill="#DE002B" stroke="#DE002B" stroke-width="0.480879"/>
<rect x="66.0598" y="91.1267" width="23.0822" height="2.4044" fill="#DE002B" stroke="#DE002B" stroke-width="0.480879"/>
</svg>
